<svg xmlns="http://www.w3.org/2000/svg" viewBox="0 0 64 64" fill="none">
  <!-- Erlenmeyer flask silhouette -->
  <path d="M24 6 L24 24 L8 54 C6 58 9 62 14 62 L50 62 C55 62 58 58 56 54 L40 24 L40 6 Z"
        fill="#12100f" stroke="#f59e0b" stroke-width="2" stroke-linejoin="round"/>
  <!-- Liquid fill -->
  <path d="M14 54 L20 42 C24 38 40 38 44 42 L50 54 C52 58 49 62 46 62 L18 62 C15 62 12 58 14 54 Z"
        fill="#f59e0b" opacity="0.7"/>
  <!-- Neck ring -->
  <rect x="22" y="4" width="20" height="4" rx="2" fill="#f59e0b" opacity="0.9"/>
  <!-- Bubble 1 -->
  <circle cx="28" cy="50" r="2.5" fill="#f59e0b" opacity="0.4"/>
  <!-- Bubble 2 -->
  <circle cx="36" cy="46" r="2" fill="#f59e0b" opacity="0.3"/>
  <!-- Bubble 3 -->
  <circle cx="32" cy="52" r="1.5" fill="#f59e0b" opacity="0.5"/>
</svg>
